#!OML:ASF H:\ManfredETheater\Project 1\Capture day 1\Session 1\subject.ASF
:FULLY-SPECIFIED
:DEGREES
341
root -2.15006 17.0656 48.2807 0.16206 -2.11864 1.52341
lowerback 5.13174 -0.663519 -3.76311
upperback -2.22186 -1.11077 1.01945
thorax -5.0991 -0.406753 3.27881
lowerneck -18.1494 -3.68279 -5.11012
upperneck 10.718 -4.3505 4.38466
head 6.42348 -1.94551 1.76923
rclavicle 9.81499e-015 8.74653e-015
rhumerus -44.0784 -17.6752 -68.9848
rradius 35.6142
rwrist -1.11618
rhand -19.6008 -12.4628
rfingers 7.12502
rthumb 6.72518 -42.336
lclavicle 9.81499e-015 8.74653e-015
lhumerus -38.1716 6.33657 77.9587
lradius 46.4933
lwrist -6.53732
lhand -12.6295 9.43962
lfingers 7.12502
lthumb 13.4503 38.9853
rfemur -12.9926 -3.05388 12.8486
rtibia 32.768
rfoot -14.6974 -9.45888
rtoes 4.83114
lfemur -10.5494 -1.02278 -22.2726
ltibia 33.5705
lfoot -18.07 0.117598
ltoes -0.313486
342
root -2.18669 17.0682 48.3112 0.18492 -2.04476 1.45174
lowerback 5.01983 -0.639218 -3.69789
upperback -2.25848 -1.06834 1.05131
thorax -5.07763 -0.387291 3.26966
lowerneck -18.1425 -3.67144 -5.1068
upperneck 10.8926 -4.34466 4.39972
head 6.4787 -1.94098 1.77391
rclavicle 6.06293e-015 -9.54166e-015
rhumerus -44.0103 -17.4869 -69.1314
rradius 35.6635
rwrist -1.07018
rhand -19.5632 -12.3761
rfingers 7.12502
rthumb 6.76151 -42.2482
lclavicle 6.06293e-015 -9.54166e-015
lhumerus -38.2414 6.34487 78
lradius 46.3178
lwrist -6.62301
lhand -12.5999 9.43731
lfingers 7.12502
lthumb 13.4789 38.9811
rfemur -12.8006 -2.85937 13.0854
rtibia 32.6557
rfoot -14.7955 -9.65666
rtoes 4.81268
lfemur -10.4189 -1.21715 -22.0807
ltibia 33.5092
lfoot -18.1171 0.242747
ltoes -0.420736
343
root -2.22321 17.0719 48.341 0.213819 -1.99285 1.33489
lowerback 4.90543 -0.612339 -3.5884
upperback -2.30001 -1.01878 1.09801
thorax -5.06075 -0.365321 3.25051
lowerneck -18.1317 -3.6555 -5.10129
upperneck 11.0764 -4.33406 4.41664
head 6.53606 -1.93391 1.77943
rclavicle -7.51655e-015 1.98785e-015
rhumerus -43.9372 -17.3166 -69.258
rradius 35.6933
rwrist -1.02846
rhand -19.5357 -12.2792
rfingers 7.12502
rthumb 6.788 -42.1503
lclavicle -7.51655e-015 1.98785e-015
lhumerus -38.3341 6.3726 78.0428
lradius 46.1219
lwrist -6.7059
lhand -12.586 9.42688
lfingers 7.12502
lthumb 13.4922 38.9698
rfemur -12.6319 -2.66365 13.369
rtibia 32.531
rfoot -14.841 -9.84919
rtoes 4.90324
lfemur -10.2985 -1.41938 -21.8436
ltibia 33.4565
lfoot -18.1595 0.405945
ltoes -0.538066
344
root -2.25899 17.0767 48.3703 0.250865 -1.9522 1.18467
lowerback 4.79085 -0.587377 -3.44031
upperback -2.35222 -0.968949 1.15568
thorax -5.05517 -0.343914 3.22127
lowerneck -18.1011 -3.63363 -5.09818
upperneck 11.2621 -4.31691 4.4395
head 6.59072 -1.92354 1.78828
rclavicle 2.24875e-015 -5.1684e-015
rhumerus -43.8692 -17.1551 -69.3634
rradius 35.7104
rwrist -0.998931
rhand -19.5069 -12.191
rfingers 7.12502
rthumb 6.81588 -42.0613
lclavicle 2.24875e-015 -5.1684e-015
lhumerus -38.4613 6.42785 78.0835
lradius 45.9098
lwrist -6.79079
lhand -12.5741 9.42059
lfingers 7.12502
lthumb 13.5037 38.9628
rfemur -12.4792 -2.50223 13.6816
rtibia 32.3903
rfoot -14.8659 -10.0223
rtoes 5.03446
lfemur -10.191 -1.64436 -21.5777
ltibia 33.4135
lfoot -18.1986 0.608265
ltoes -0.645321
345
root -2.29426 17.0821 48.3989 0.299384 -1.92136 1.00642
lowerback 4.6712 -0.565044 -3.26317
upperback -2.41406 -0.920447 1.223
thorax -5.05671 -0.323714 3.18595
lowerneck -18.0602 -3.60688 -5.09203
upperneck 11.4561 -4.29504 4.46369
head 6.64614 -1.91074 1.79776
rclavicle -8.62228e-015 3.97569e-016
rhumerus -43.8011 -17.0057 -69.4491
rradius 35.7115
rwrist -0.98018
rhand -19.4702 -12.1094
rfingers 7.12502
rthumb 6.85129 -41.9786
lclavicle -8.62228e-015 3.97569e-016
lhumerus -38.6205 6.5069 78.1221
lradius 45.6824
lwrist -6.87218
lhand -12.5712 9.42333
lfingers 7.12502
lthumb 13.5066 38.9653
rfemur -12.3413 -2.37736 14.0201
rtibia 32.2388
rfoot -14.8806 -10.1698
rtoes 5.19195
lfemur -10.101 -1.87919 -21.2859
ltibia 33.3787
lfoot -18.236 0.835032
ltoes -0.739305
346
root -2.32887 17.0877 48.4272 0.35761 -1.89212 0.82064
lowerback 4.54194 -0.546664 -3.0755
upperback -2.48535 -0.876564 1.29325
thorax -5.06222 -0.305955 3.14819
lowerneck -18.005 -3.57698 -5.0835
upperneck 11.6576 -4.27065 4.48848
head 6.70148 -1.89673 1.80753
rclavicle -6.64686e-015 4.37326e-015
rhumerus -43.7381 -16.8669 -69.5155
rradius 35.7015
rwrist -0.977087
rhand -19.4342 -12.0381
rfingers 7.12502
rthumb 6.88602 -41.9061
lclavicle -6.64686e-015 4.37326e-015
lhumerus -38.8106 6.60399 78.1588
lradius 45.4359
lwrist -6.95089
lhand -12.5791 9.43111
lfingers 7.12502
lthumb 13.4989 38.9736
rfemur -12.2087 -2.30108 14.3598
rtibia 32.0797
rfoot -14.8968 -10.2673
rtoes 5.36556
lfemur -10.0232 -2.12286 -20.9908
ltibia 33.3484
lfoot -18.2754 1.07668
ltoes -0.818425
347
root -2.36325 17.0933 48.4549 0.427114 -1.86489 0.641345
lowerback 4.41673 -0.531093 -2.89889
upperback -2.5748 -0.837784 1.36413
thorax -5.08841 -0.289761 3.11817
lowerneck -17.9365 -3.54521 -5.07253
upperneck 11.8762 -4.24523 4.51039
head 6.76004 -1.88249 1.81628
rclavicle -6.13748e-015 2.10712e-014
rhumerus -43.6911 -16.7338 -69.5595
rradius 35.6829
rwrist -0.98983
rhand -19.3901 -11.9866
rfingers 7.12502
rthumb 6.92859 -41.8532
lclavicle -6.13748e-015 2.10712e-014
lhumerus -39.0414 6.71475 78.1927
lradius 45.1712
lwrist -7.02822
lhand -12.5834 9.44636
lfingers 7.12502
lthumb 13.4948 38.9891
rfemur -12.0844 -2.25507 14.6886
rtibia 31.917
rfoot -14.9232 -10.3247
rtoes 5.56479
lfemur -9.96062 -2.36319 -20.7036
ltibia 33.3185
lfoot -18.317 1.31715
ltoes -0.87207
348
root -2.39795 17.0987 48.4822 0.50464 -1.84241 0.468183
lowerback 4.28464 -0.516156 -2.73903
upperback -2.67073 -0.80113 1.43508
thorax -5.11701 -0.274021 3.0979
lowerneck -17.8618 -3.51371 -5.06265
upperneck 12.1025 -4.22151 4.53811
head 6.82032 -1.86865 1.82702
rclavicle -1.14301e-015 -7.15625e-015
rhumerus -43.6444 -16.612 -69.5891
rradius 35.6552
rwrist -1.01766
rhand -19.3445 -11.9446
rfingers 7.12502
rthumb 6.97263 -41.8097
lclavicle -1.14301e-015 -7.15625e-015
lhumerus -39.2926 6.83259 78.2253
lradius 44.8868
lwrist -7.10525
lhand -12.5788 9.45897
lfingers 7.12502
lthumb 13.4992 39.0015
rfemur -11.9668 -2.20964 15.0109
rtibia 31.7534
rfoot -14.9676 -10.3686
rtoes 5.80855
lfemur -9.90643 -2.59851 -20.4204
ltibia 33.2825
lfoot -18.3595 1.5529
ltoes -0.892218
349
root -2.43301 17.1036 48.5092 0.586843 -1.81855 0.313106
lowerback 4.15084 -0.504451 -2.60937
upperback -2.76998 -0.771196 1.5023
thorax -5.14732 -0.260649 3.09143
lowerneck -17.8051 -3.48368 -5.04275
upperneck 12.3509 -4.20121 4.55923
head 6.8906 -1.85621 1.83347
rclavicle -2.03754e-015 -1.03368e-014
rhumerus -43.5964 -16.5036 -69.6091
rradius 35.6276
rwrist -1.05516
rhand -19.2933 -11.9162
rfingers 7.12502
rthumb 7.02206 -41.7797
lclavicle -2.03754e-015 -1.03368e-014
lhumerus -39.5545 6.95365 78.2549
lradius 44.58
lwrist -7.17917
lhand -12.5555 9.47104
lfingers 7.12502
lthumb 13.5217 39.012
rfemur -11.853 -2.16547 15.3127
rtibia 31.5915
rfoot -15.0259 -10.4018
rtoes 6.08144
lfemur -9.85512 -2.82152 -20.1532
ltibia 33.2367
lfoot -18.4047 1.77453
ltoes -0.912221
350
root -2.46836 17.108 48.5357 0.673984 -1.78444 0.184599
lowerback 4.01328 -0.495448 -2.51363
upperback -2.87511 -0.74758 1.56168
thorax -5.18092 -0.249293 3.09653
lowerneck -17.7505 -3.45942 -5.02063
upperneck 12.6137 -4.18921 4.57684
head 6.96629 -1.84784 1.8375
rclavicle 8.89561e-015 -1.59028e-014
rhumerus -43.5576 -16.4092 -69.6159
rradius 35.6041
rwrist -1.10142
rhand -19.2383 -11.9052
rfingers 7.12502
rthumb 7.07517 -41.7669
lclavicle 8.89561e-015 -1.59028e-014
lhumerus -39.8298 7.06671 78.2862
lradius 44.2542
lwrist -7.25577
lhand -12.4954 9.48225
lfingers 7.12502
lthumb 13.5796 39.0194
rfemur -11.7439 -2.12889 15.584
rtibia 31.4325
rfoot -15.0951 -10.4274
rtoes 6.37131
lfemur -9.80809 -3.02827 -19.9099
ltibia 33.1795
lfoot -18.4524 1.96497
ltoes -0.93927
351
root -2.50413 17.1118 48.5614 0.766318 -1.74093 0.0752885
lowerback 3.88245 -0.491442 -2.4491
upperback -2.98248 -0.733138 1.61619
thorax -5.21984 -0.241377 3.11511
lowerneck -17.7278 -3.43945 -4.98507
upperneck 12.9 -4.18348 4.58062
head 7.05481 -1.84248 1.83384
rclavicle -2.03754e-015 2.38542e-015
rhumerus -43.5128 -16.3244 -69.62
rradius 35.5861
rwrist -1.15309
rhand -19.1884 -11.8925
rfingers 7.12502
rthumb 7.12327 -41.7526
lclavicle -2.03754e-015 2.38542e-015
lhumerus -40.1056 7.17745 78.3155
lradius 43.9092
lwrist -7.33397
lhand -12.3966 9.48209
lfingers 7.12502
lthumb 13.6748 39.0128
rfemur -11.6441 -2.08674 15.8362
rtibia 31.2787
rfoot -15.1691 -10.4607
rtoes 6.66022
lfemur -9.7685 -3.21321 -19.6812
ltibia 33.1128
lfoot -18.5005 2.12616
ltoes -0.978199
352
root -2.53993 17.1151 48.5863 0.861811 -1.6788 -0.0253059
lowerback 3.75242 -0.494877 -2.39787
upperback -3.08847 -0.729758 1.66705
thorax -5.2569 -0.238611 3.13833
lowerneck -17.7234 -3.42484 -4.94106
upperneck 13.1939 -4.18504 4.57493
head 7.14901 -1.84069 1.82472
rclavicle 5.49143e-015 -1.35174e-014
rhumerus -43.4626 -16.2516 -69.6222
rradius 35.5772
rwrist -1.20611
rhand -19.1375 -11.894
rfingers 7.12502
rthumb 7.17245 -41.7524
lclavicle 5.49143e-015 -1.35174e-014
lhumerus -40.3768 7.28404 78.345
lradius 43.5461
lwrist -7.4188
lhand -12.2482 9.47549
lfingers 7.12502
lthumb 13.8178 38.9965
rfemur -11.5483 -2.05523 16.0786
rtibia 31.1304
rfoot -15.2492 -10.4976
rtoes 6.93
lfemur -9.73595 -3.38891 -19.4572
ltibia 33.0404
lfoot -18.5502 2.25424
ltoes -1.0387
